# xmcd
#
# Track frame offsets:
#	150
#	21581
#	51668
#	80530
#	96082
#	153989
#	241237
#
# Disc length: 3873 seconds
#
# Revision: 1
# Processed by: cddbd v1.5.2PL0 Copyright (c) Steve Scherf et al.
# Submitted via: audiograbber 1.83.01
#
DISCID=560f1f07
DTITLE=Grateful Dead - 79-08-12 Red Rocks Amphitheatre, Morrison CO
DYEAR=1900
DGENRE=
TTITLE0=China Cat Sunflower
TTITLE1=I Know You Rider
TTITLE2=Lost Sailor
TTITLE3=Don't Ease Me In
TTITLE4=Estimated Prophet
TTITLE5=Eyes Of The World
TTITLE6=Drums
EXTD=
EXTT0=
EXTT1=
EXTT2=
EXTT3=
EXTT4=
EXTT5=
EXTT6=
PLAYORDER=
